<svg width="266" height="266" viewBox="0 0 266 266" fill="none" xmlns="http://www.w3.org/2000/svg">
<path d="M136.738 15.9359C135.829 15.9109 135.108 15.715 134.576 15.3483C134.058 14.9672 133.69 14.4583 133.473 13.8214C133.256 13.1699 133.159 12.419 133.183 11.5686L133.351 5.45491L131.591 5.40659L131.643 3.5153L133.539 3.41331L133.917 0.0784217L136.028 0.136412L135.936 3.47915L139.081 3.56553L139.025 5.61076L135.88 5.52438L135.711 11.6601C135.691 12.3785 135.816 12.9321 136.084 13.3209C136.352 13.6951 136.802 13.8908 137.432 13.9082C137.637 13.9138 137.858 13.8905 138.094 13.8383C138.33 13.7861 138.538 13.7258 138.716 13.6573L139.126 15.5393C138.801 15.6331 138.431 15.7256 138.018 15.817C137.619 15.9087 137.193 15.9484 136.738 15.9359ZM148.297 16.9957C147.207 16.8484 146.252 16.4678 145.432 15.8538C144.614 15.2253 144.007 14.4105 143.609 13.4096C143.214 12.3942 143.105 11.2251 143.284 9.90247C143.416 8.92866 143.686 8.07721 144.095 7.34812C144.507 6.6045 145.01 5.99916 145.606 5.53209C146.204 5.05048 146.85 4.70853 147.543 4.50622C148.236 4.30392 148.925 4.24892 149.608 4.34124C150.669 4.48462 151.53 4.84523 152.192 5.42308C152.856 5.98639 153.319 6.72235 153.581 7.63096C153.845 8.52503 153.9 9.53891 153.747 10.6726C153.714 10.9197 153.667 11.1576 153.606 11.3862C153.562 11.6022 153.508 11.7873 153.442 11.9412L145.659 10.8894C145.63 11.6551 145.738 12.3356 145.983 12.9312C146.244 13.5141 146.616 13.9936 147.098 14.3695C147.597 14.7329 148.187 14.9607 148.87 15.053C149.408 15.1257 149.921 15.1135 150.407 15.0165C150.894 14.9194 151.374 14.7623 151.847 14.5451L152.504 16.2545C151.903 16.5432 151.244 16.7649 150.527 16.9197C149.825 17.0765 149.082 17.1018 148.297 16.9957ZM145.873 9.14235L151.629 9.92015C151.766 8.90273 151.641 8.07917 151.252 7.44947C150.878 6.82174 150.255 6.44894 149.383 6.3311C148.889 6.26432 148.407 6.32501 147.938 6.51317C147.468 6.70133 147.049 7.01461 146.679 7.45301C146.323 7.89336 146.055 8.45648 145.873 9.14235ZM156.187 17.7931L161.536 12.654L159.475 6.12256L162.137 6.81051L162.911 9.5326C163.011 9.9069 163.111 10.2812 163.212 10.6555C163.312 11.0298 163.41 11.4112 163.507 11.7997L163.613 11.8272C163.843 11.5231 164.079 11.228 164.319 10.9417C164.574 10.6591 164.829 10.3765 165.084 10.094L166.93 8.04883L169.486 8.70926L164.452 13.6801L166.709 20.5119L164.046 19.8239L163.157 16.9355C163.06 16.547 162.958 16.1495 162.851 15.7432C162.744 15.3368 162.619 14.941 162.476 14.5556L162.37 14.5281C162.115 14.8107 161.85 15.1056 161.573 15.413C161.301 15.7061 161.026 16.0063 160.75 16.3136L158.743 18.4535L156.187 17.7931ZM174.206 23.4064C173.354 23.0888 172.735 22.6704 172.349 22.151C171.983 21.623 171.8 21.0226 171.8 20.3497C171.805 19.663 171.957 18.9211 172.254 18.124L174.39 12.3932L172.741 11.7785L173.401 10.0056L175.228 10.5221L176.664 7.48854L178.643 8.22615L177.475 11.3596L180.423 12.4583L179.708 14.3755L176.761 13.2767L174.617 19.0282C174.366 19.7017 174.304 20.2657 174.432 20.7203C174.565 21.1612 174.927 21.4918 175.518 21.7121C175.711 21.7838 175.927 21.8331 176.167 21.8601C176.408 21.8871 176.623 21.897 176.814 21.8897L176.594 23.8033C176.255 23.7868 175.876 23.755 175.455 23.7078C175.048 23.6657 174.632 23.5652 174.206 23.4064ZM190.866 31.2536C190.074 30.8073 189.528 30.2976 189.228 29.7246C188.947 29.146 188.86 28.5243 188.965 27.8597C189.077 27.1822 189.342 26.4729 189.76 25.7318L192.762 20.4031L191.228 19.5393L192.157 17.8908L193.881 18.6853L195.771 15.9121L197.611 16.9487L195.97 19.8622L198.711 21.4063L197.707 23.1889L194.966 21.6448L191.953 26.9927C191.601 27.6188 191.452 28.1664 191.508 28.6354C191.57 29.0917 191.877 29.4746 192.426 29.7841C192.605 29.8849 192.811 29.9673 193.044 30.0314C193.278 30.0954 193.489 30.1387 193.678 30.1612L193.163 32.0172C192.831 31.9483 192.462 31.8578 192.053 31.7457C191.658 31.6408 191.262 31.4767 190.866 31.2536ZM200.591 37.5865C199.696 36.9472 199.03 36.1646 198.591 35.2388C198.162 34.3011 198.005 33.2969 198.121 32.2262C198.245 31.1435 198.695 30.0591 199.471 28.9731C200.042 28.1734 200.679 27.5468 201.381 27.0933C202.092 26.6278 202.82 26.3277 203.565 26.193C204.319 26.0463 205.049 26.0455 205.757 26.1904C206.465 26.3353 207.099 26.608 207.66 27.0087C208.531 27.631 209.124 28.3521 209.44 29.1722C209.764 29.9804 209.829 30.8473 209.637 31.7731C209.453 32.687 209.028 33.6094 208.363 34.5403C208.218 34.7432 208.066 34.9316 207.906 35.1055C207.766 35.276 207.631 35.4142 207.501 35.5199L201.11 30.955C200.727 31.6183 200.504 32.2704 200.443 32.9115C200.402 33.5491 200.507 34.1467 200.757 34.7043C201.029 35.2584 201.445 35.7357 202.006 36.1364C202.447 36.4518 202.906 36.6802 203.381 36.8217C203.857 36.9632 204.355 37.0485 204.875 37.0774L204.658 38.8958C203.991 38.8702 203.305 38.7586 202.599 38.5608C201.905 38.3716 201.236 38.0468 200.591 37.5865ZM202.115 29.51L206.842 32.8857C207.438 32.0503 207.712 31.2634 207.662 30.5252C207.625 29.7954 207.248 29.1748 206.532 28.6634C206.126 28.3735 205.672 28.2022 205.169 28.1494C204.666 28.0965 204.148 28.1775 203.617 28.3924C203.097 28.6157 202.596 28.9883 202.115 29.51ZM207.194 41.9753L214.325 39.9322L215.555 33.1944L217.588 35.047L216.999 37.815C216.913 38.1928 216.827 38.5705 216.74 38.9483C216.654 39.326 216.563 39.7092 216.467 40.0978L216.548 40.1719C216.893 40.0106 217.239 39.8596 217.586 39.7189C217.943 39.5882 218.301 39.4575 218.658 39.3267L221.246 38.3815L223.197 40.16L216.424 42.2021L215.226 49.2966L213.194 47.444L213.757 44.4747C213.853 44.0861 213.949 43.6871 214.044 43.2778C214.14 42.8685 214.214 42.4602 214.268 42.0528L214.187 41.9787C213.829 42.1094 213.457 42.246 213.069 42.3886C212.691 42.5203 212.308 42.6574 211.92 42.8L209.145 43.7538L207.194 41.9753ZM220.506 55.3553C219.9 54.6769 219.548 54.0181 219.449 53.3789C219.371 52.7408 219.489 52.1243 219.804 51.5292C220.129 50.9244 220.609 50.3387 221.243 49.7722L225.806 45.6992L224.633 44.3863L226.045 43.1263L227.42 44.4351L230.105 42.4215L231.511 43.997L229.017 46.224L231.112 48.5709L229.586 49.9334L227.49 47.5865L222.912 51.6742C222.375 52.1528 222.058 52.623 221.959 53.0849C221.871 53.5369 222.037 53.9982 222.457 54.4687C222.594 54.6218 222.762 54.7664 222.962 54.9024C223.162 55.0384 223.348 55.1476 223.52 55.2301L222.433 56.8201C222.141 56.6477 221.821 56.4426 221.471 56.2046C221.13 55.9776 220.809 55.6945 220.506 55.3553ZM231.602 70.0533C231.108 69.2897 230.862 68.5844 230.863 67.9376C230.884 67.2951 231.096 66.7041 231.498 66.1647C231.913 65.6172 232.477 65.1126 233.192 64.6508L238.328 61.3303L237.372 59.8523L238.961 58.8251L240.118 60.3304L243.081 58.7551L244.228 60.5287L241.42 62.3442L243.128 64.9862L241.409 66.097L239.701 63.455L234.547 66.7874C233.943 67.1776 233.557 67.5932 233.388 68.0342C233.231 68.4673 233.324 68.9487 233.667 69.4783C233.778 69.6507 233.922 69.8196 234.099 69.9848C234.276 70.15 234.443 70.2866 234.6 70.3946L233.28 71.7978C233.019 71.5826 232.733 71.3304 232.424 71.0413C232.123 70.7645 231.849 70.4351 231.602 70.0533ZM237.271 80.1805C236.775 79.1986 236.548 78.196 236.59 77.1726C236.645 76.1426 236.972 75.1803 237.572 74.2859C238.185 73.3848 239.087 72.6334 240.278 72.0317C241.155 71.5887 242.01 71.3294 242.843 71.2539C243.689 71.1717 244.473 71.244 245.195 71.4707C245.931 71.6907 246.578 72.0292 247.138 72.486C247.697 72.9429 248.132 73.479 248.443 74.0943C248.926 75.05 249.116 75.9642 249.015 76.837C248.926 77.7032 248.582 78.5015 247.982 79.232C247.394 79.9559 246.59 80.5757 245.569 81.0915C245.346 81.2039 245.124 81.2999 244.901 81.3795C244.698 81.4656 244.514 81.5254 244.351 81.5588L240.81 74.5483C240.162 74.9575 239.662 75.4318 239.31 75.9711C238.978 76.5169 238.793 77.0948 238.756 77.705C238.739 78.3216 238.886 78.9376 239.197 79.5529C239.441 80.0373 239.742 80.4526 240.097 80.7988C240.453 81.145 240.854 81.4516 241.301 81.7187L240.264 83.2283C239.686 82.8961 239.13 82.4785 238.597 81.9756C238.07 81.4858 237.628 80.8875 237.271 80.1805ZM242.371 73.7352L244.989 78.9194C245.906 78.4566 246.513 77.8868 246.812 77.21C247.118 76.5463 247.072 75.8216 246.676 75.0362C246.451 74.591 246.128 74.2283 245.707 73.948C245.286 73.6676 244.79 73.4991 244.219 73.4424C243.655 73.3987 243.039 73.4963 242.371 73.7352ZM241.08 87.1339L248.34 88.6571L252.574 83.2732L253.506 85.8604L251.693 88.0335C251.441 88.3273 251.188 88.621 250.935 88.9147C250.682 89.2084 250.423 89.5046 250.156 89.8033L250.193 89.9068C250.574 89.9255 250.951 89.9535 251.323 89.991C251.7 90.0422 252.077 90.0935 252.454 90.1447L255.184 90.5174L256.079 93.0011L249.136 91.6442L244.764 97.3585L243.832 94.7713L245.716 92.4085C245.983 92.1098 246.254 91.8018 246.529 91.4843C246.805 91.1668 247.061 90.8405 247.299 90.5054L247.262 90.4019C246.885 90.3507 246.491 90.2975 246.082 90.2424C245.686 90.1824 245.283 90.1248 244.874 90.0697L241.975 89.6176L241.08 87.1339ZM246.603 105.182C246.385 104.299 246.381 103.552 246.592 102.941C246.821 102.34 247.213 101.85 247.769 101.47C248.339 101.087 249.037 100.794 249.862 100.589L255.799 99.1181L255.376 97.4098L257.212 96.9547L257.817 98.7542L261.131 98.2275L261.639 100.278L258.393 101.082L259.15 104.135L257.164 104.628L256.407 101.574L250.45 103.05C249.752 103.223 249.252 103.49 248.948 103.853C248.66 104.211 248.591 104.697 248.743 105.309C248.792 105.508 248.873 105.715 248.987 105.928C249.1 106.142 249.214 106.325 249.327 106.479L247.623 107.377C247.446 107.088 247.258 106.757 247.06 106.383C246.865 106.023 246.713 105.623 246.603 105.182ZM249.544 123.362C249.463 122.456 249.574 121.718 249.877 121.146C250.195 120.587 250.658 120.163 251.265 119.873C251.887 119.582 252.622 119.399 253.469 119.323L259.561 118.78L259.404 117.027L261.289 116.859L261.61 118.73L264.966 118.718L265.154 120.821L261.823 121.118L262.103 124.252L260.065 124.434L259.785 121.3L253.672 121.845C252.956 121.909 252.42 122.097 252.065 122.408C251.725 122.718 251.583 123.188 251.639 123.816C251.657 124.02 251.706 124.237 251.785 124.465C251.864 124.694 251.948 124.892 252.037 125.061L250.215 125.688C250.084 125.375 249.95 125.019 249.811 124.619C249.673 124.234 249.585 123.815 249.544 123.362ZM249.824 134.964C249.845 133.864 250.114 132.872 250.63 131.987C251.16 131.102 251.9 130.405 252.849 129.895C253.812 129.386 254.961 129.144 256.295 129.17C257.278 129.189 258.155 129.36 258.926 129.683C259.712 130.006 260.371 130.437 260.903 130.975C261.45 131.514 261.864 132.116 262.145 132.782C262.425 133.447 262.559 134.124 262.545 134.814C262.525 135.884 262.265 136.781 261.767 137.505C261.284 138.229 260.606 138.774 259.733 139.138C258.875 139.503 257.875 139.674 256.731 139.652C256.482 139.647 256.24 139.628 256.006 139.594C255.786 139.575 255.596 139.542 255.436 139.495L255.587 131.643C254.823 131.701 254.16 131.886 253.596 132.198C253.047 132.525 252.614 132.949 252.295 133.471C251.992 134.008 251.833 134.621 251.82 135.311C251.809 135.853 251.88 136.361 252.032 136.833C252.185 137.305 252.396 137.764 252.666 138.209L251.043 139.058C250.687 138.494 250.392 137.865 250.156 137.171C249.919 136.491 249.809 135.756 249.824 134.964ZM257.347 131.655L257.235 137.462C258.262 137.481 259.065 137.262 259.646 136.804C260.227 136.361 260.526 135.699 260.543 134.819C260.553 134.32 260.437 133.849 260.196 133.404C259.955 132.959 259.596 132.578 259.118 132.261C258.64 131.958 258.05 131.756 257.347 131.655ZM249.937 142.892L255.655 147.619L261.907 144.824L261.529 147.547L258.913 148.627C258.552 148.77 258.192 148.912 257.832 149.055C257.471 149.197 257.104 149.338 256.729 149.479L256.714 149.588C257.042 149.781 257.362 149.981 257.674 150.188C257.984 150.408 258.294 150.629 258.604 150.85L260.847 152.45L260.483 155.065L254.969 150.633L248.44 153.657L248.819 150.933L251.587 149.719C251.962 149.578 252.345 149.432 252.736 149.279C253.128 149.126 253.507 148.956 253.873 148.771L253.888 148.662C253.578 148.441 253.255 148.211 252.918 147.971C252.596 147.734 252.266 147.496 251.929 147.256L249.574 145.507L249.937 142.892ZM246.422 161.437C246.64 160.554 246.985 159.891 247.457 159.449C247.939 159.024 248.515 158.774 249.183 158.697C249.866 158.624 250.62 158.689 251.446 158.893L257.384 160.36L257.806 158.651L259.643 159.105L259.339 160.979L262.516 162.058L262.01 164.109L258.763 163.307L258.009 166.361L256.023 165.87L256.777 162.816L250.818 161.344C250.121 161.172 249.553 161.175 249.116 161.354C248.693 161.537 248.406 161.934 248.255 162.547C248.206 162.746 248.182 162.967 248.182 163.209C248.183 163.45 248.198 163.666 248.227 163.854L246.301 163.854C246.278 163.516 246.267 163.136 246.265 162.712C246.261 162.303 246.313 161.878 246.422 161.437ZM240.577 178.899C240.93 178.061 241.374 177.46 241.909 177.097C242.452 176.753 243.06 176.595 243.732 176.624C244.418 176.659 245.153 176.841 245.937 177.172L251.572 179.548L252.256 177.926L253.999 178.661L253.406 180.464L256.376 182.027L255.556 183.973L252.475 182.674L251.252 185.573L249.367 184.778L250.589 181.879L244.933 179.494C244.271 179.215 243.71 179.13 243.251 179.239C242.805 179.353 242.459 179.701 242.214 180.282C242.134 180.471 242.076 180.685 242.039 180.924C242.002 181.163 241.983 181.378 241.982 181.569L240.079 181.268C240.11 180.931 240.158 180.553 240.223 180.134C240.282 179.73 240.4 179.318 240.577 178.899ZM235.383 189.279C235.918 188.318 236.62 187.567 237.491 187.028C238.374 186.495 239.354 186.226 240.431 186.221C241.521 186.222 242.649 186.548 243.816 187.196C244.675 187.674 245.369 188.236 245.899 188.883C246.441 189.537 246.821 190.226 247.039 190.951C247.27 191.684 247.353 192.41 247.289 193.129C247.224 193.848 247.025 194.509 246.69 195.112C246.169 196.047 245.52 196.718 244.74 197.124C243.974 197.537 243.12 197.7 242.178 197.613C241.249 197.533 240.285 197.215 239.285 196.659C239.067 196.538 238.863 196.407 238.672 196.268C238.487 196.148 238.334 196.03 238.215 195.913L242.031 189.048C241.329 188.742 240.656 188.594 240.012 188.605C239.374 188.636 238.792 188.808 238.266 189.12C237.746 189.452 237.318 189.919 236.983 190.521C236.72 190.996 236.544 191.477 236.457 191.966C236.37 192.454 236.342 192.958 236.371 193.478L234.54 193.467C234.49 192.802 234.524 192.107 234.641 191.384C234.751 190.673 234.998 189.971 235.383 189.279ZM243.58 189.884L240.758 194.96C241.655 195.459 242.468 195.643 243.196 195.51C243.917 195.391 244.491 194.947 244.919 194.177C245.161 193.742 245.28 193.271 245.276 192.765C245.272 192.259 245.133 191.754 244.86 191.25C244.579 190.758 244.152 190.303 243.58 189.884ZM231.767 196.334L234.62 203.182L241.454 203.626L239.849 205.858L237.031 205.594C236.646 205.551 236.261 205.509 235.876 205.467C235.491 205.425 235.099 205.379 234.702 205.328L234.638 205.417C234.838 205.742 235.028 206.068 235.208 206.396C235.379 206.736 235.55 207.076 235.721 207.415L236.959 209.877L235.417 212.021L232.607 205.528L225.422 205.158L227.027 202.925L230.042 203.142C230.439 203.192 230.846 203.241 231.264 203.289C231.682 203.336 232.096 203.363 232.507 203.37L232.571 203.28C232.4 202.94 232.221 202.586 232.035 202.217C231.86 201.857 231.68 201.492 231.493 201.123L230.226 198.477L231.767 196.334ZM220.006 211.094C220.611 210.415 221.225 209.99 221.849 209.819C222.474 209.669 223.1 209.716 223.727 209.961C224.365 210.215 225.001 210.625 225.636 211.192L230.202 215.261L231.373 213.948L232.785 215.207L231.641 216.721L233.947 219.16L232.541 220.737L230.045 218.511L227.952 220.86L226.425 219.498L228.518 217.15L223.936 213.065C223.4 212.587 222.897 212.325 222.427 212.279C221.968 212.243 221.528 212.461 221.108 212.932C220.972 213.085 220.847 213.269 220.735 213.483C220.623 213.697 220.535 213.894 220.473 214.074L218.77 213.175C218.908 212.866 219.075 212.524 219.272 212.149C219.458 211.785 219.703 211.433 220.006 211.094ZM206.689 223.816C207.391 223.238 208.063 222.912 208.706 222.839C209.346 222.786 209.958 222.928 210.54 223.266C211.131 223.615 211.697 224.117 212.238 224.774L216.127 229.495L217.485 228.376L218.688 229.836L217.326 231.158L219.231 233.921L217.601 235.263L215.475 232.682L213.047 234.683L211.746 233.104L214.174 231.103L210.272 226.366C209.815 225.811 209.357 225.475 208.9 225.358C208.452 225.252 207.984 225.4 207.497 225.801C207.339 225.931 207.188 226.094 207.044 226.288C206.9 226.483 206.784 226.664 206.694 226.833L205.149 225.683C205.333 225.399 205.55 225.086 205.802 224.746C206.042 224.415 206.338 224.105 206.689 223.816ZM197.265 230.59C198.186 229.988 199.157 229.651 200.178 229.579C201.208 229.519 202.201 229.737 203.156 230.234C204.12 230.742 204.967 231.555 205.698 232.672C206.235 233.495 206.588 234.316 206.756 235.135C206.932 235.966 206.947 236.754 206.802 237.497C206.665 238.252 206.401 238.933 206.009 239.54C205.617 240.147 205.133 240.639 204.556 241.016C203.66 241.602 202.772 241.893 201.894 241.889C201.023 241.898 200.191 241.644 199.399 241.129C198.614 240.626 197.909 239.895 197.282 238.938C197.146 238.729 197.026 238.519 196.922 238.306C196.814 238.114 196.734 237.938 196.682 237.779L203.256 233.481C202.777 232.883 202.25 232.439 201.675 232.149C201.096 231.879 200.501 231.76 199.89 231.791C199.276 231.843 198.68 232.057 198.103 232.434C197.649 232.731 197.269 233.076 196.965 233.468C196.66 233.86 196.4 234.292 196.184 234.767L194.569 233.904C194.835 233.292 195.188 232.693 195.628 232.107C196.057 231.529 196.602 231.024 197.265 230.59ZM204.237 234.942L199.377 238.12C199.938 238.98 200.572 239.52 201.278 239.742C201.972 239.972 202.687 239.846 203.423 239.364C203.841 239.092 204.165 238.73 204.397 238.281C204.629 237.831 204.741 237.32 204.734 236.746C204.715 236.181 204.549 235.579 204.237 234.942ZM190.779 235.151L190.124 242.54L195.969 246.109L193.51 247.34L191.138 245.796C190.817 245.58 190.495 245.364 190.174 245.147C189.852 244.931 189.528 244.708 189.2 244.479L189.101 244.528C189.128 244.908 189.144 245.286 189.151 245.66C189.145 246.04 189.138 246.42 189.132 246.801L189.084 249.556L186.723 250.737L187.251 243.683L181.061 240.016L183.52 238.785L186.089 240.378C186.417 240.607 186.755 240.84 187.102 241.076C187.45 241.312 187.804 241.528 188.165 241.724L188.264 241.675C188.27 241.295 188.276 240.898 188.283 240.485C188.296 240.085 188.305 239.678 188.312 239.265L188.419 236.333L190.779 235.151ZM173.503 242.744C174.355 242.426 175.096 242.337 175.728 242.477C176.351 242.636 176.883 242.969 177.323 243.478C177.769 244.001 178.14 244.66 178.438 245.457L180.578 251.186L182.227 250.571L182.889 252.343L181.17 253.149L182.073 256.382L180.094 257.121L178.924 253.988L175.977 255.089L175.261 253.173L178.208 252.072L176.06 246.322C175.809 245.648 175.486 245.182 175.091 244.922C174.702 244.676 174.212 244.664 173.621 244.884C173.429 244.956 173.233 245.061 173.034 245.198C172.834 245.335 172.665 245.468 172.526 245.599L171.439 244.009C171.705 243.8 172.013 243.575 172.361 243.335C172.696 243.1 173.077 242.904 173.503 242.744ZM155.785 247.765C156.676 247.583 157.422 247.61 158.024 247.846C158.615 248.1 159.089 248.512 159.445 249.083C159.804 249.668 160.069 250.378 160.239 251.211L161.463 257.203L163.188 256.851L163.566 258.705L161.743 259.234L162.133 262.568L160.063 262.991L159.394 259.715L156.312 260.344L155.902 258.34L158.984 257.71L157.756 251.696C157.612 250.992 157.365 250.481 157.016 250.163C156.669 249.86 156.187 249.771 155.569 249.897C155.368 249.939 155.158 250.011 154.94 250.116C154.722 250.22 154.534 250.326 154.376 250.433L153.549 248.693C153.845 248.528 154.184 248.354 154.565 248.171C154.933 247.992 155.339 247.856 155.785 247.765ZM144.287 249.354C145.382 249.251 146.398 249.405 147.336 249.817C148.275 250.244 149.051 250.9 149.665 251.785C150.281 252.684 150.651 253.798 150.777 255.127C150.869 256.105 150.799 256.996 150.565 257.799C150.333 258.616 149.98 259.32 149.505 259.91C149.032 260.514 148.481 260.994 147.851 261.348C147.222 261.702 146.564 261.912 145.878 261.976C144.812 262.077 143.891 261.921 143.115 261.508C142.341 261.11 141.724 260.498 141.262 259.673C140.803 258.862 140.519 257.887 140.411 256.748C140.388 256.5 140.38 256.257 140.387 256.021C140.381 255.8 140.392 255.608 140.421 255.443L148.24 254.704C148.095 253.951 147.836 253.313 147.462 252.789C147.075 252.28 146.604 251.897 146.05 251.64C145.482 251.399 144.855 251.311 144.168 251.376C143.628 251.427 143.132 251.555 142.68 251.76C142.228 251.965 141.796 252.227 141.384 252.546L140.357 251.03C140.877 250.612 141.469 250.247 142.132 249.934C142.78 249.622 143.498 249.429 144.287 249.354ZM148.427 256.454L142.645 257.001C142.742 258.023 143.051 258.796 143.572 259.322C144.078 259.848 144.769 260.07 145.646 259.987C146.142 259.941 146.598 259.772 147.012 259.483C147.427 259.193 147.764 258.793 148.026 258.282C148.272 257.772 148.406 257.163 148.427 256.454ZM136.422 250.366L132.386 256.59L135.883 262.479L133.134 262.416L131.759 259.942C131.577 259.601 131.394 259.259 131.211 258.918C131.028 258.576 130.845 258.227 130.662 257.871L130.552 257.868C130.398 258.217 130.236 258.558 130.067 258.892C129.883 259.225 129.7 259.558 129.516 259.891L128.185 262.304L125.546 262.244L129.313 256.256L125.557 250.119L128.306 250.181L129.832 252.791C130.014 253.147 130.204 253.511 130.401 253.882C130.598 254.253 130.81 254.61 131.037 254.953L131.147 254.955C131.33 254.622 131.522 254.274 131.721 253.912C131.919 253.564 132.118 253.209 132.317 252.847L133.783 250.306L136.422 250.366ZM117.599 248.996C118.501 249.113 119.198 249.381 119.691 249.8C120.168 250.232 120.481 250.775 120.633 251.431C120.783 252.101 120.803 252.858 120.693 253.702L119.906 259.767L121.652 259.993L121.408 261.87L119.512 261.779L118.798 265.058L116.703 264.786L117.134 261.47L114.014 261.065L114.277 259.036L117.397 259.441L118.187 253.354C118.28 252.642 118.212 252.078 117.985 251.664C117.756 251.265 117.329 251.024 116.703 250.943C116.5 250.917 116.278 250.918 116.037 250.946C115.797 250.973 115.585 251.013 115.401 251.063L115.183 249.149C115.517 249.088 115.893 249.034 116.314 248.985C116.72 248.934 117.148 248.938 117.599 248.996ZM99.5824 245.18C100.456 245.433 101.104 245.805 101.527 246.294C101.931 246.794 102.158 247.379 102.208 248.05C102.253 248.735 102.157 249.486 101.92 250.303L100.213 256.176L101.903 256.667L101.375 258.484L99.5154 258.104L98.3076 261.236L96.2795 260.646L97.2126 257.435L94.1916 256.557L94.7625 254.593L97.7835 255.47L99.4962 249.576C99.6968 248.886 99.7164 248.319 99.5552 247.875C99.3899 247.445 99.0045 247.142 98.3989 246.966C98.2017 246.909 97.9823 246.876 97.7405 246.867C97.4988 246.858 97.2832 246.864 97.0938 246.885L97.1719 244.96C97.5104 244.952 97.8911 244.955 98.3141 244.971C98.7231 244.983 99.1458 245.053 99.5824 245.18ZM88.6654 241.241C89.6833 241.658 90.5117 242.267 91.1506 243.067C91.7839 243.881 92.167 244.823 92.2998 245.892C92.427 246.974 92.2377 248.133 91.7317 249.368C91.3593 250.277 90.8832 251.033 90.3035 251.636C89.7183 252.252 89.0785 252.711 88.3842 253.013C87.6844 253.328 86.9735 253.497 86.2515 253.518C85.5296 253.539 84.8497 253.419 84.2118 253.158C83.221 252.752 82.4781 252.186 81.9829 251.461C81.4822 250.748 81.2194 249.919 81.1946 248.974C81.1641 248.042 81.3657 247.047 81.7994 245.989C81.8939 245.758 81.9992 245.54 82.1153 245.334C82.2123 245.135 82.3117 244.97 82.4135 244.838L89.6814 247.815C89.9027 247.081 89.9696 246.395 89.8823 245.757C89.7758 245.127 89.5367 244.57 89.1648 244.084C88.7738 243.607 88.2594 243.238 87.6215 242.977C87.1193 242.771 86.6205 242.654 86.1251 242.625C85.6296 242.597 85.1255 242.628 84.6127 242.719L84.4071 240.899C85.0618 240.771 85.7554 240.723 86.4878 240.753C87.2066 240.778 87.9325 240.941 88.6654 241.241ZM89.0347 249.452L83.6601 247.25C83.2709 248.2 83.1851 249.029 83.4026 249.736C83.6065 250.438 84.1156 250.955 84.93 251.289C85.3914 251.478 85.873 251.54 86.3746 251.476C86.8763 251.412 87.3614 251.215 87.8299 250.884C88.2848 250.547 88.6864 250.07 89.0347 249.452ZM81.2331 238.483L74.7477 242.084L75.0716 248.925L72.6733 247.58L72.621 244.751C72.6198 244.363 72.6186 243.976 72.6173 243.588C72.6161 243.201 72.6185 242.807 72.6244 242.406L72.5285 242.353C72.2284 242.588 71.9254 242.813 71.6196 243.028C71.3011 243.236 70.9825 243.444 70.664 243.653L68.3563 245.158L66.0539 243.866L72.1907 240.347L71.7549 233.165L74.1533 234.511L74.2752 237.531C74.2693 237.931 74.2662 238.341 74.2658 238.761C74.2655 239.182 74.2851 239.596 74.3247 240.005L74.4207 240.059C74.7392 239.851 75.0713 239.634 75.417 239.407C75.7555 239.194 76.0976 238.974 76.4433 238.747L78.9307 237.191L81.2331 238.483ZM65.24 228.459C65.9836 228.983 66.4759 229.545 66.7171 230.145C66.9377 230.749 66.9625 231.376 66.7914 232.027C66.6118 232.689 66.2772 233.369 65.7875 234.064L62.2669 239.065L63.7061 240.078L62.617 241.626L60.9812 240.662L58.8225 243.232L57.0955 242.016L59.0204 239.282L56.4479 237.471L57.6256 235.798L60.1981 237.609L63.7313 232.59C64.145 232.002 64.3477 231.472 64.3393 231C64.3225 230.54 64.0563 230.128 63.5406 229.765C63.3727 229.647 63.1759 229.544 62.9502 229.457C62.7246 229.37 62.5187 229.306 62.3325 229.265L63.0312 227.47C63.3541 227.571 63.7131 227.698 64.108 227.851C64.4909 227.995 64.8682 228.198 65.24 228.459ZM51.0926 216.672C51.7463 217.304 52.1459 217.935 52.2913 218.565C52.416 219.196 52.3435 219.819 52.0738 220.436C51.7939 221.063 51.3583 221.682 50.767 222.294L46.5157 226.691L47.7809 227.914L46.4658 229.274L44.9986 228.07L42.4685 230.275L40.9502 228.807L43.2747 226.403L41.013 224.216L42.4352 222.745L44.6969 224.932L48.9635 220.519C49.4631 220.003 49.7452 219.51 49.81 219.043C49.8645 218.585 49.6651 218.137 49.2117 217.699C49.0641 217.556 48.8855 217.424 48.6761 217.303C48.4666 217.183 48.2731 217.087 48.0956 217.018L49.0633 215.352C49.3667 215.503 49.7016 215.684 50.0682 215.895C50.4243 216.097 50.7657 216.356 51.0926 216.672ZM43.2743 208.094C43.9802 208.937 44.429 209.862 44.6208 210.868C44.8013 211.884 44.701 212.895 44.32 213.902C43.9277 214.919 43.2198 215.856 42.1963 216.712C41.4427 217.343 40.669 217.79 39.8752 218.052C39.0701 218.324 38.2901 218.432 37.535 218.375C36.7688 218.328 36.0614 218.146 35.4129 217.828C34.7643 217.51 34.2189 217.087 33.7765 216.558C33.0894 215.737 32.6961 214.89 32.5966 214.017C32.4859 213.153 32.64 212.297 33.0589 211.45C33.4666 210.611 34.1091 209.825 34.9864 209.091C35.1776 208.931 35.3726 208.787 35.5714 208.659C35.7496 208.529 35.9146 208.429 36.0666 208.359L41.107 214.382C41.6448 213.837 42.0239 213.261 42.2442 212.656C42.4439 212.049 42.4924 211.444 42.3898 210.842C42.2665 210.237 41.9836 209.671 41.5413 209.142C41.193 208.726 40.8064 208.39 40.3815 208.133C39.9565 207.877 39.496 207.669 38.9999 207.511L39.6668 205.805C40.3057 205.997 40.9419 206.278 41.5755 206.646C42.1997 207.004 42.766 207.486 43.2743 208.094ZM39.7714 215.529L36.044 211.075C35.2566 211.733 34.7942 212.426 34.6568 213.153C34.5099 213.869 34.7188 214.564 35.2836 215.239C35.6036 215.622 36.0004 215.902 36.474 216.079C36.9476 216.257 37.4688 216.308 38.0377 216.234C38.5971 216.148 39.175 215.913 39.7714 215.529ZM37.9858 202.188L30.5697 202.366L27.6795 208.575L26.1804 206.27L27.448 203.739C27.6269 203.396 27.8058 203.052 27.9846 202.708C28.1635 202.365 28.3485 202.017 28.5397 201.665L28.4797 201.573C28.1046 201.642 27.7317 201.701 27.361 201.749C26.9822 201.786 26.6035 201.822 26.2247 201.858L23.4819 202.12L22.0427 199.907L29.112 199.64L32.0612 193.077L33.5603 195.382L32.266 198.114C32.0748 198.465 31.8815 198.827 31.686 199.199C31.4906 199.571 31.3154 199.948 31.1605 200.328L31.2205 200.42C31.5993 200.384 31.9943 200.346 32.4056 200.306C32.8047 200.274 33.2099 200.238 33.6212 200.198L36.5466 199.975L37.9858 202.188ZM28.4817 185.882C28.8964 186.691 29.0709 187.418 29.0052 188.061C28.9197 188.698 28.6498 189.265 28.1956 189.762C27.7283 190.265 27.1162 190.71 26.3592 191.098L20.9163 193.888L21.7191 195.454L20.0353 196.317L19.0353 194.704L15.929 195.974L14.9657 194.095L17.9416 192.569L16.5067 189.77L18.3275 188.837L19.7624 191.636L25.2248 188.837C25.8644 188.509 26.2903 188.134 26.5025 187.712C26.7018 187.297 26.6575 186.809 26.3699 186.247C26.2762 186.065 26.1498 185.882 25.9906 185.7C25.8313 185.518 25.6789 185.366 25.5334 185.242L26.9868 183.978C27.2254 184.219 27.484 184.498 27.7626 184.817C28.0346 185.122 28.2743 185.477 28.4817 185.882ZM21.4515 168.864C21.7344 169.728 21.7931 170.473 21.6274 171.098C21.4433 171.714 21.088 172.232 20.5617 172.651C20.0214 173.075 19.3471 173.419 18.5387 173.684L12.7263 175.587L13.274 177.259L11.4759 177.848L10.7408 176.098L7.47383 176.867L6.81662 174.86L9.9946 173.819L9.01563 170.829L10.9601 170.193L11.939 173.182L17.7723 171.272C18.4553 171.049 18.9346 170.745 19.2103 170.362C19.472 169.983 19.5048 169.494 19.3085 168.894C19.2446 168.699 19.1483 168.499 19.0195 168.294C18.8907 168.09 18.7641 167.915 18.6397 167.771L20.2731 166.75C20.471 167.024 20.6827 167.341 20.9081 167.699C21.1289 168.044 21.31 168.432 21.4515 168.864ZM18.5458 157.627C18.7757 158.703 18.7403 159.731 18.4397 160.71C18.1247 161.692 17.5634 162.539 16.7559 163.252C15.934 163.967 14.8704 164.465 13.5653 164.744C12.6043 164.949 11.7115 164.983 10.887 164.844C10.0481 164.708 9.30815 164.439 8.6671 164.036C8.01171 163.636 7.47161 163.144 7.0468 162.56C6.62198 161.976 6.33753 161.347 6.19344 160.673C5.96964 159.626 6.01775 158.693 6.33777 157.875C6.64344 157.06 7.17953 156.375 7.94604 155.821C8.6982 155.271 9.63365 154.876 10.7524 154.636C10.9962 154.584 11.2359 154.548 11.4715 154.528C11.6897 154.496 11.8823 154.485 12.0493 154.494L13.691 162.175C14.4215 161.944 15.0255 161.612 15.5031 161.18C15.9633 160.737 16.2888 160.225 16.4796 159.644C16.653 159.052 16.6677 158.419 16.5236 157.745C16.4102 157.214 16.2255 156.736 15.9696 156.311C15.7138 155.886 15.4036 155.487 15.0391 155.115L16.4257 153.919C16.9007 154.387 17.3322 154.932 17.7202 155.554C18.105 156.162 18.3802 156.853 18.5458 157.627ZM11.9745 162.564L10.7605 156.884C9.75647 157.099 9.02384 157.496 8.56258 158.074C8.09826 158.638 7.95807 159.351 8.14202 160.211C8.24625 160.699 8.46627 161.132 8.80207 161.51C9.13787 161.888 9.57461 162.177 10.1123 162.377C10.6469 162.563 11.2677 162.625 11.9745 162.564ZM16.6295 149.935L9.98856 146.629L4.53352 150.771L4.28424 148.032L6.58656 146.387C6.90522 146.166 7.22388 145.946 7.54254 145.725C7.8612 145.505 8.18717 145.284 8.52043 145.062L8.51046 144.953C8.14662 144.838 7.78941 144.716 7.43884 144.586C7.08694 144.441 6.73504 144.297 6.38314 144.152L3.83553 143.103L3.59622 140.474L9.97227 143.538L15.6444 139.112L15.8937 141.851L13.4738 143.661C13.1406 143.883 12.8007 144.113 12.4541 144.351C12.1076 144.588 11.777 144.839 11.4623 145.104L11.4723 145.213C11.8242 145.358 12.1913 145.509 12.5738 145.665C12.9416 145.823 13.3168 145.98 13.6992 146.137L16.3902 147.306L16.6295 149.935ZM15.8452 131.077C15.833 131.986 15.6474 132.71 15.2881 133.248C14.9145 133.771 14.4107 134.145 13.777 134.372C13.1286 134.598 12.3791 134.705 11.5285 134.694L5.41304 134.612L5.38953 136.372L3.4977 136.347L3.36899 134.453L0.0291088 134.122L0.0573214 132.01L3.40102 132.055L3.44305 128.909L5.48887 128.936L5.44684 132.082L11.5843 132.164C12.3029 132.174 12.8547 132.042 13.2397 131.768C13.6101 131.495 13.7995 131.042 13.8079 130.412C13.8106 130.206 13.7843 129.986 13.7287 129.751C13.6732 129.515 13.6099 129.309 13.539 129.132L15.415 128.695C15.5133 129.019 15.6111 129.387 15.7083 129.799C15.8056 130.196 15.8513 130.622 15.8452 131.077ZM17.5739 112.74C17.4238 113.637 17.1303 114.324 16.6935 114.801C16.2446 115.261 15.6898 115.555 15.0291 115.682C14.3538 115.807 13.5967 115.799 12.7578 115.659L6.72574 114.649L6.43506 116.385L4.56905 116.072L4.72964 114.181L1.4788 113.346L1.82762 111.263L5.1257 111.816L5.6453 108.713L7.6632 109.051L7.1436 112.154L13.1973 113.167C13.9061 113.286 14.4716 113.239 14.8937 113.028C15.3013 112.813 15.5572 112.395 15.6614 111.773C15.6953 111.571 15.7027 111.349 15.6836 111.108C15.6645 110.867 15.6333 110.653 15.5901 110.467L17.5107 110.321C17.5587 110.656 17.5994 111.034 17.6328 111.456C17.6687 111.864 17.649 112.292 17.5739 112.74ZM20.2296 101.444C19.9315 102.503 19.4212 103.395 18.6987 104.121C17.9622 104.843 17.0706 105.331 16.0239 105.585C14.9632 105.835 13.7905 105.779 12.5057 105.417C11.5598 105.151 10.7545 104.764 10.0897 104.257C9.41082 103.746 8.88173 103.163 8.50245 102.508C8.10905 101.848 7.8606 101.161 7.7571 100.446C7.6536 99.7317 7.69524 99.0425 7.88205 98.379C8.17219 97.3484 8.64956 96.5457 9.31418 95.971C9.96468 95.3923 10.7581 95.0366 11.6944 94.9041C12.6165 94.7675 13.6282 94.8543 14.7294 95.1643C14.9694 95.2318 15.1984 95.3115 15.4163 95.4034C15.6241 95.4771 15.7997 95.557 15.9431 95.6431L13.8147 103.203C14.5687 103.339 15.2577 103.328 15.8816 103.168C16.4954 102.99 17.022 102.689 17.4616 102.264C17.891 101.821 18.1991 101.268 18.3859 100.605C18.533 100.082 18.5925 99.5734 18.5643 99.0779C18.5362 98.5825 18.4477 98.0852 18.2987 97.5861L20.0831 97.1743C20.285 97.8101 20.4125 98.4936 20.4657 99.2247C20.5229 99.9417 20.4442 100.681 20.2296 101.444ZM12.1146 102.747L13.6885 97.1568C12.7003 96.8785 11.8673 96.8878 11.1895 97.1846C10.5157 97.4672 10.0595 98.0321 9.82106 98.8792C9.68593 99.3592 9.67874 99.8447 9.79951 100.336C9.92028 100.827 10.1719 101.286 10.5543 101.714C10.9407 102.127 11.4608 102.472 12.1146 102.747ZM22.1205 93.7447L17.7829 87.7268L11.0268 88.8516L12.0816 86.3119L14.8853 85.9278C15.2699 85.8811 15.6546 85.8344 16.0393 85.7877C16.4239 85.741 16.8154 85.6971 17.2136 85.656L17.2558 85.5545C16.9869 85.284 16.7277 85.0096 16.478 84.7312C16.234 84.4393 15.99 84.1474 15.746 83.8554L13.9801 81.7404L14.9927 79.3023L19.208 84.9836L26.2889 83.7078L25.2341 86.2475L22.2494 86.7231C21.8512 86.7642 21.4434 86.8092 21.0261 86.8582C20.6087 86.9072 20.1992 86.9754 19.7977 87.0627L19.7555 87.1643C19.9995 87.4562 20.2543 87.7606 20.5198 88.0773C20.7717 88.3884 21.0305 88.7023 21.296 89.019L23.1331 91.3065L22.1205 93.7447ZM30.2108 76.694C29.7762 77.4928 29.2746 78.0463 28.706 78.3547C28.1315 78.6432 27.5113 78.7398 26.8451 78.6445C26.1661 78.5421 25.453 78.2876 24.7058 77.881L19.3338 74.9576L18.4925 76.5035L16.8306 75.5991L17.5998 73.8637L14.7992 72.014L15.8088 70.1589L18.746 71.7573L20.2498 68.994L22.0469 69.972L20.5431 72.7353L25.9345 75.6693C26.5657 76.0128 27.1154 76.1533 27.5836 76.0908C28.0389 76.0213 28.4172 75.7096 28.7187 75.1557C28.8168 74.9753 28.8962 74.768 28.9569 74.5339C29.0175 74.2997 29.0577 74.0878 29.0774 73.8982L30.9408 74.3862C30.8767 74.7187 30.7916 75.0898 30.6855 75.4996C30.5864 75.8965 30.4282 76.2947 30.2108 76.694ZM40.3193 61.2997C39.7664 62.0216 39.1852 62.4909 38.5758 62.7077C37.9636 62.9039 37.3359 62.9035 36.6925 62.7063C36.0375 62.5002 35.3723 62.1385 34.697 61.6213L29.8415 57.9024L28.7713 59.2996L27.2693 58.1492L28.2975 56.5535L25.8166 54.2931L27.1008 52.6164L29.7556 54.6498L31.6685 52.1522L33.2928 53.3962L31.3799 55.8938L36.2528 59.6261C36.8234 60.0631 37.3447 60.2869 37.8169 60.2975C38.2774 60.2992 38.6994 60.0498 39.0829 59.5491C39.2078 59.3861 39.3183 59.1936 39.4144 58.9716C39.5105 58.7496 39.583 58.5465 39.6318 58.3622L41.3973 59.1324C41.2826 59.451 41.1411 59.8045 40.9729 60.193C40.8136 60.5698 40.5958 60.9387 40.3193 61.2997ZM47.9437 52.5486C47.1867 53.3467 46.3194 53.8987 45.3419 54.2047C44.3538 54.5005 43.3375 54.517 42.2931 54.2541C41.2381 53.9811 40.2264 53.3853 39.2581 52.4668C38.5451 51.7906 38.0126 51.0732 37.6606 50.3148C37.298 49.5463 37.1014 48.7838 37.0711 48.0272C37.0301 47.2606 37.1303 46.5369 37.3717 45.8562C37.613 45.1755 37.9709 44.5851 38.4453 44.0849C39.1821 43.3081 39.9785 42.8202 40.8343 42.6213C41.6795 42.4122 42.5472 42.4671 43.4375 42.7859C44.3171 43.0947 45.1719 43.6427 46.0019 44.43C46.1828 44.6016 46.3483 44.7788 46.4984 44.9615C46.6479 45.1236 46.766 45.2761 46.8528 45.419L41.4478 51.1173C42.0516 51.589 42.6667 51.8995 43.2931 52.049C43.919 52.1777 44.5253 52.1565 45.1121 51.9854C45.6984 51.7935 46.2288 51.4475 46.7032 50.9474C47.0766 50.5537 47.3663 50.1311 47.5722 49.6795C47.7782 49.228 47.9315 48.7467 48.0321 48.2357L49.8029 48.7024C49.6854 49.3591 49.4799 50.0234 49.1864 50.6951C48.903 51.3562 48.4887 51.974 47.9437 52.5486ZM40.1557 49.9221L44.1527 45.7082C43.4078 45.0017 42.6664 44.6218 41.9284 44.5687C41.2005 44.5049 40.5337 44.7923 39.9281 45.4308C39.5849 45.7926 39.3524 46.2189 39.2305 46.7097C39.1086 47.2005 39.1172 47.7242 39.2564 48.2807C39.4057 48.8266 39.7055 49.3738 40.1557 49.9221ZM53.2046 46.6166L52.1853 39.2688L45.6876 37.1031L47.8077 35.3516L50.4655 36.3235C50.8273 36.4621 51.1892 36.6007 51.551 36.7394C51.9128 36.878 52.2793 37.0223 52.6505 37.1722L52.7353 37.1022C52.6242 36.7374 52.5234 36.3736 52.433 36.0108C52.3538 35.6386 52.2746 35.2664 52.1955 34.8943L51.6239 32.1989L53.6592 30.5175L54.7279 37.5106L61.5832 39.6948L59.4631 41.4462L56.6026 40.4707C56.2314 40.3207 55.8499 40.1698 55.4581 40.0179C55.0662 39.866 54.6724 39.7348 54.2767 39.6242L54.1919 39.6942C54.271 40.0664 54.3539 40.4545 54.4404 40.8586C54.5176 41.2514 54.5995 41.6499 54.686 42.054L55.2399 44.9352L53.2046 46.6166ZM68.3214 35.3142C67.5651 35.8192 66.8636 36.0759 66.2168 36.0845C65.5741 36.0727 64.9801 35.8698 64.4347 35.4756C63.8812 35.0692 63.3683 34.5122 62.8959 33.8048L59.4998 28.7183L58.0361 29.6956L56.9855 28.1221L58.4735 26.9434L56.8545 24.0035L58.611 22.8308L60.4679 25.6119L63.0843 23.865L64.2204 25.5665L61.6039 27.3134L65.0122 32.4182C65.4113 33.0159 65.8326 33.396 66.2761 33.5584C66.7114 33.7086 67.1914 33.6086 67.7159 33.2584C67.8866 33.1444 68.0533 32.9978 68.2159 32.8187C68.3785 32.6396 68.5126 32.4707 68.6183 32.312L70.0409 33.6107C69.8295 33.8752 69.5816 34.1642 69.2971 34.4776C69.0247 34.7829 68.6995 35.0618 68.3214 35.3142ZM84.4213 26.3765C83.5957 26.7578 82.8628 26.9024 82.2226 26.8104C81.5895 26.6989 81.0342 26.406 80.5567 25.9319C80.0731 25.4444 79.653 24.8145 79.2963 24.0422L76.732 18.4898L75.1341 19.2277L74.3409 17.5101L75.994 16.577L74.8515 13.4212L76.7689 12.5357L78.171 15.5715L81.0271 14.2525L81.885 16.11L79.0288 17.429L81.6024 23.0014C81.9037 23.6539 82.2608 24.0948 82.6737 24.3241C83.0804 24.5402 83.5701 24.516 84.1426 24.2516C84.329 24.1655 84.5165 24.0466 84.7049 23.8949C84.8933 23.7433 85.0521 23.5973 85.1811 23.4569L86.3846 24.9609C86.1347 25.1894 85.8449 25.4363 85.5151 25.7017C85.1986 25.961 84.834 26.1859 84.4213 26.3765ZM95.2455 22.1896C94.2036 22.5424 93.179 22.6261 92.1716 22.4407C91.1596 22.2414 90.253 21.7819 89.4518 21.0622C88.646 20.3285 88.029 19.3296 87.601 18.0655C87.2858 17.1347 87.1495 16.2518 87.1919 15.4168C87.2296 14.5678 87.4115 13.8017 87.7376 13.1183C88.0589 12.4211 88.4851 11.8277 89.0162 11.3382C89.5473 10.8487 90.1392 10.4934 90.7922 10.2723C91.8063 9.92896 92.7382 9.86889 93.5881 10.0921C94.4332 10.3015 95.1751 10.7548 95.8138 11.4521C96.4478 12.1356 96.9483 13.0191 97.3152 14.1026C97.3952 14.3388 97.4589 14.5727 97.5064 14.8044C97.563 15.0175 97.5964 15.2075 97.6064 15.3744L90.1673 17.8933C90.4814 18.5922 90.8806 19.1538 91.365 19.5782C91.8585 19.984 92.4048 20.2481 93.0036 20.3705C93.6117 20.4743 94.2422 20.4157 94.8951 20.1946C95.4091 20.0205 95.8625 19.7819 96.2553 19.4785C96.6481 19.1752 97.0082 18.821 97.3356 18.4159L98.6842 19.6549C98.2739 20.1809 97.7823 20.6726 97.2093 21.1298C96.6503 21.5823 95.9956 21.9356 95.2455 22.1896ZM89.582 16.2333L95.0832 14.3706C94.754 13.3982 94.2753 12.7163 93.6473 12.3251C93.0332 11.9291 92.3094 11.8722 91.4759 12.1545C91.0036 12.3144 90.599 12.583 90.2622 12.9603C89.9255 13.3376 89.6888 13.8048 89.5523 14.362C89.4297 14.9145 89.4396 15.5383 89.582 16.2333ZM102.665 19.3976L105.201 12.4264L100.471 7.47294L103.164 6.91654L105.059 9.01871C105.314 9.31049 105.569 9.60226 105.824 9.89404C106.079 10.1858 106.335 10.4848 106.593 10.7909L106.701 10.7687C106.773 10.3943 106.854 10.0256 106.944 9.66258C107.048 9.29661 107.152 8.93065 107.256 8.56468L108.012 5.91502L110.597 5.38087L108.271 12.0617L113.308 17.1987L110.615 17.7552L108.543 15.5549C108.285 15.2487 108.019 14.9369 107.743 14.6194C107.468 14.3018 107.181 14.0016 106.883 13.7187L106.776 13.741C106.671 14.107 106.563 14.4888 106.451 14.8864C106.335 15.2697 106.221 15.6602 106.109 16.0579L105.25 18.8635L102.665 19.3976ZM121.309 16.4096C120.405 16.5126 119.664 16.42 119.085 16.1317C118.519 15.8272 118.084 15.3749 117.779 14.7749C117.473 14.1603 117.271 13.4304 117.175 12.5852L116.482 6.50857L114.734 6.70791L114.519 4.82809L116.382 4.46078L116.287 1.10591L118.386 0.866693L118.764 4.18917L121.89 3.83284L122.122 5.86567L118.996 6.22201L119.691 12.3205C119.773 13.0345 119.973 13.5652 120.294 13.9125C120.612 14.2453 121.084 14.3759 121.711 14.3045C121.915 14.2813 122.13 14.2272 122.357 14.1423C122.583 14.0575 122.78 13.9686 122.946 13.8758L123.617 15.6815C123.308 15.82 122.956 15.9636 122.559 16.1121C122.177 16.2589 121.761 16.3581 121.309 16.4096Z" fill="black" style="mix-blend-mode:overlay"/>
</svg>
