<svg id="Outline" xmlns="http://www.w3.org/2000/svg" width="40" height="40" viewBox="0 0 40 40">
  <defs>
    <style>
      .cls-1 {
        fill: none;
      }
    </style>
  </defs>
  <g>
    <rect class="cls-1" width="40" height="40"/>
    <g>
      <path d="M17,32a.99411.99411,0,0,1-.65039-.24121L9.62988,26H5a.99943.99943,0,0,1-1-1V15a.99943.99943,0,0,1,1-1H9.62988l6.71973-5.75879A.99964.99964,0,0,1,18,9V31a1.00073,1.00073,0,0,1-1,1ZM6,24h4a.99436.99436,0,0,1,.65039.24121L16,28.82617V11.17383l-5.34961,4.585A.99436.99436,0,0,1,10,16H6Z"/>
      <path d="M21.5791,24.42871a1,1,0,0,1-.707-1.707,3.84765,3.84765,0,0,0,0-5.44336.99989.99989,0,0,1,1.41406-1.41406,5.84691,5.84691,0,0,1,0,8.27148A.99676.99676,0,0,1,21.5791,24.42871Z"/>
      <path d="M25.80273,28.71387a1,1,0,0,1-.707-1.707,9.90441,9.90441,0,0,0,0-14.01368.99989.99989,0,1,1,1.41407-1.41406,11.90369,11.90369,0,0,1,0,16.8418A.9968.9968,0,0,1,25.80273,28.71387Z"/>
      <path d="M30.02734,33a1,1,0,0,1-.707-1.707,15.96587,15.96587,0,0,0,0-22.58594A.99989.99989,0,0,1,30.73438,7.293a17.96516,17.96516,0,0,1,0,25.41406A.9968.9968,0,0,1,30.02734,33Z"/>
    </g>
  </g>
</svg>
