<svg id="Outline" xmlns="http://www.w3.org/2000/svg" width="40" height="40" viewBox="0 0 40 40">
  <defs>
    <style>
      .cls-1 {
        fill: none;
      }
    </style>
  </defs>
  <g>
    <rect class="cls-1" width="40" height="40"/>
    <g>
      <path d="M30.41406,20l5.293-5.293A.99989.99989,0,1,0,34.293,13.293L29,18.58594l-5.293-5.293A.99989.99989,0,0,0,22.293,14.707L27.58594,20l-5.293,5.293A.99989.99989,0,1,0,23.707,26.707L29,21.41406l5.293,5.293A.99989.99989,0,1,0,35.707,25.293Z"/>
      <path d="M17,32a.99411.99411,0,0,1-.65039-.24121L9.62988,26H5a.99943.99943,0,0,1-1-1V15a.99943.99943,0,0,1,1-1H9.62988l6.71973-5.75879A.99964.99964,0,0,1,18,9V31a1.00073,1.00073,0,0,1-1,1ZM6,24h4a.99436.99436,0,0,1,.65039.24121L16,28.82617V11.17383l-5.34961,4.585A.99436.99436,0,0,1,10,16H6Z"/>
    </g>
  </g>
</svg>
